<svg version="1.1" xmlns="http://www.w3.org/2000/svg" xmlns:xlink="http://www.w3.org/1999/xlink" x="0px" y="0px" viewBox="0 0 195 69.6" style="enable-background:new 0 0 195 69.6;" xml:space="preserve" width="195px" height="69.6302px">
	<g>
		<path fill="rgb(232, 230, 227)" d="M181.7,56.1H2.4c-0.9,0-1.7-0.5-2.1-1.3c-0.4-0.9-0.4-1.9,0.2-2.7l0,0l18-23.9c0.9-1.2,2.2-1.8,3.6-1.8h170.1
		c0.9,0,1.7,0.4,2.3,1.2c0.6,0.8,0.7,1.9,0.3,2.8l0,0l-9.5,23.1C184.7,55.1,183.3,56.1,181.7,56.1 M1.9,53.2
		c-0.2,0.3-0.2,0.6-0.1,0.8c0.1,0.1,0.2,0.4,0.5,0.4h179.3c0.8,0,1.6-0.5,1.9-1.4l0,0l9.5-23.1c0.1-0.4,0.1-0.8-0.1-1.2
		c-0.1-0.2-0.4-0.5-0.8-0.5H22.1c-0.9,0-1.6,0.4-2.2,1.1L1.9,53.2z"></path>
    <path fill="rgb(232, 230, 227)" d="M61.4,28.6c0,0-1.3-2.1-1-5.3c0.2-1.6,0.9-3.3,1.3-4.2c0.2-0.5,0.6-0.8,1.1-1l0.7-0.2c0,0,1.5-2.1,5.4-3.1
		c4-1,6.5-0.1,6.5-0.1S96.5,2.8,97.1,2.6c0.7-0.3,1.2-0.4,1.2-0.4v-1c0,0,0-1.3,1.5-1.2c1.4,0.1,1.4,1.7,1.4,1.7v0.7l9,1.1V2.5
		c0,0,0-1.2,1.4-1.1c1.5,0.1,1.4,1.5,1.4,1.5v1.2c0,0,1.1,0.2,1.6,1.4c0.6,1.4,2.5,6.3,2.5,6.3l0.1,0.3c0,0,9-2.6,10-2.7
		c1-0.1,4.8,0.3,5.3,0.8c0.5,0.5-0.1,1.5-0.1,1.5l0.5,2.1c0,0,2.4-0.4,5.3-0.4c1.6,0,2.9,0.1,3.8,0.3c0.7,0.1,1.2,0.7,1.2,1.4v3.4
		c0,0,2.8,0.7,2.7,5.1c-0.1,2.9-1.1,4.4-4.1,5.5C138.9,30.1,61.4,28.6,61.4,28.6"></path>
    <path fill="rgb(232, 230, 227)" d="M121.2,16.4c0.3,0.1,0.7,0.3,1,0.5c0.4,0.2,0.7,0.5,1,0.8l0,0l0,0c0,0,0,0,0,0c0.4,0.6,0.7,1.2,0.7,1.9v1.1
		c0.3,0.3,0.6,0.7,0.6,1.1v1.4c0,0.9-0.7,1.7-1.5,1.9c-0.2,1.3-0.9,2.7-2.4,2.7c-11.2,0-20.6-0.4-32.5-0.4c-0.2,0-0.4,0-0.6-0.1
		C86.3,27,86,25.3,86,24.2c0-0.4,0-0.7,0.1-1.1h-1v-0.8l-1.1,0V11.1l13.4-7.6c0.2-0.1,0.5-0.3,0.8-0.4c0.2-0.1,0.4-0.1,0.6-0.1V1.6
		c0-0.5,0.4-0.9,0.9-0.9c0.5,0,0.9,0.4,0.9,0.9v1.6c0.2,0,0.4,0,0.7,0l0,0l9.4,1.1V3c0-0.5,0.4-0.9,0.9-0.9c0.5,0,0.9,0.4,0.9,0.9
		v1.9c0.1,0.1,0.3,0.2,0.4,0.3c1,0.7,1.6,1.7,1.9,2.8c0.2,0.1,0.4,0.3,0.5,0.6v0l0.6,2l-0.4,0.1l0.3,1.9c0.6,0.1,1.2,0.2,1.8,0.3
		c0.7,0.1,1.4,0.3,2.1,0.5c0.3,0.1,0.7,0.2,0.9,0.4c0.3,0.3,0.3,0.7,0.4,1C121.2,15.3,121.2,15.9,121.2,16.4"></path>
    <path fill="rgb(132, 183, 236)" d="M123.5,21.1v-1.3c0-0.7-0.2-1.2-0.6-1.6c0,0,0,0,0,0l0,0l0,0c-0.3-0.3-0.6-0.6-0.9-0.8
		c-0.4-0.3-0.8-0.5-1.2-0.6c0-0.6-0.1-1.3-0.1-1.9c-0.1-0.8-0.2-0.9-1-1.1c-1.1-0.3-3.1-0.7-4.2-0.8l-0.4-2.5l0.3-0.1L115,8.7
		c-0.1-0.2-0.3-0.4-0.5-0.5c-0.3-1.1-0.8-2.1-1.8-2.7c-0.2-0.1-0.4-0.2-0.6-0.3V3c0-0.3-0.2-0.5-0.5-0.5c-0.3,0-0.5,0.2-0.5,0.5v1.8
		l-9.8-1.2h0c-0.4,0-0.7,0-1.1,0v-2c0-0.3-0.2-0.5-0.5-0.5c-0.3,0-0.5,0.2-0.5,0.5v1.6v0.2v0.2c-0.8-0.1-1,0-1.6,0.4l-13.2,7.4
		l13-6.5l0,13.9c0,0-1.3,0.5-1.9,2.5c-0.4,1.4-0.3,3.1-0.3,3.1h-0.8c0,0,0,1.1-0.1,1.3h1.2c0.3,0.9,0.7,1.8,1.5,1.8h2.8
		c0.7,0,1.2-1,1.5-1.8h1.1c0.3,1,0.9,1.9,1.9,1.9h2c1.3,0,1.9-1.3,2-2.7h9c0.1,1.2,0.8,2.7,2,2.7h1.3c1.3,0,1.9-1.3,2-2.7
		c0.8,0,1.5-0.7,1.5-1.5V22C124.1,21.6,123.8,21.3,123.5,21.1"></path>
    <path fill="rgb(232, 230, 227)" d="M99.2,4.1c-0.4-0.1-0.6-0.1-0.9,0.1v13.9l0.5-0.2V7.4c0-0.3,0.2-0.5,0.5-0.5V4.1z"></path>
    <path fill="rgb(232, 230, 227)" d="M121.1,20.4h1.5c0.2,0,0.4-0.2,0.4-0.3v-1.2c0-0.2-0.2-0.3-0.4-0.3h-1.5c-0.2,0-0.4,0.2-0.4,0.3v1.2
		C120.7,20.3,120.9,20.4,121.1,20.4"></path>
    <polygon fill="rgb(232, 230, 227)" points="119.4,16.4 112,16.3 112,16.3 112,16.7 119.4,16.8 119.4,16.6 	"></polygon>
    <polygon fill="rgb(232, 230, 227)" points="119.5,20.7 119.5,20.5 112,20.4 112,20.6 112,20.7 119.5,20.9 	"></polygon>
    <path fill="rgb(232, 230, 227)" d="M112,15.7c0,0.1,0,0.2,0,0.4l7.3,0.1c0-0.1,0-0.2,0-0.4L112,15.7z"></path>
    <path fill="rgb(232, 230, 227)" d="M110.2,18.5h-1.5c-0.2,0-0.4,0.2-0.4,0.3v1.2c0,0.2,0.2,0.3,0.4,0.3h1.5c0.2,0,0.4-0.2,0.4-0.3v-1.2
		C110.5,18.7,110.4,18.5,110.2,18.5"></path>
    <path fill="rgb(232, 230, 227)" d="M123.1,21.4l-16.7-0.1c0,0.1,0.1,0.2,0.1,0.3l17.1,0.1c0,0,0.1,0,0.1,0C123.6,21.6,123.4,21.4,123.1,21.4"></path>
    <path fill="rgb(232, 230, 227)" d="M119.3,15.1L112,15c0,0,0,0,0,0.1c0,0,0,0.1,0,0.1v0.1v0.1l7.3,0.1c0-0.1,0-0.1,0-0.2
		C119.3,15.2,119.3,15.1,119.3,15.1"></path>
    <path fill="rgb(232, 230, 227)" d="M107.6,19c0-1.1-0.4-2.4-2.3-2.4c3.4-0.8,5.7,1,6.1,2.5c0-1.7,0-3.5,0-3.7c0-0.4-0.2-0.8-0.4-0.8
		c-0.2-0.1-3.4-0.8-3.4-0.8l3.8,0.6c0.1-0.1,0.1-0.4,0.5-0.4c1.4-0.1,5.5,0,6.8,0.1c0.8,0.1,0.9,0.3,1,1c0.1,0.6,0.2,3.6,0.2,5.6
		h0.4v-1.7v-0.2c0,0,0,0,0,0c0-1.3,0-2.7-0.2-4c0-0.5-0.1-0.6-0.4-0.7c-1.4-0.4-3-0.7-4.4-0.9l-8.8-0.5h-1.9c-0.5,0-0.7,0.2-1.1,0.6
		l-0.1-3.5c0-0.4-0.3-0.4-0.6-0.3c-0.2,0.1-2,0.7-2,0.7c0.3-0.2,1.4-0.7,1.8-0.8c0.3-0.2,0.5-0.2,0.9-0.2c1.6,0.1,9,0.4,10.9,0.5
		L114.5,9c-0.1-0.3-0.1-0.4-0.4-0.5c-2.4-0.1-10-0.6-10.4-0.6c-0.4,0-2.4,1-2.4,1s0.4-0.7,1.9-1.4c0,0,0-0.1,0-0.1
		c-0.2-2.5-2.4-3-2.4-3c2,0.1,2.5,1.5,2.8,2c0.3,0.5,0.8,0.7,1.5,0.8c0.6,0.1,7.4,0.5,8.7,0.6c-0.8-2.3-2.7-2.4-2.7-2.4l-9.9-1.2
		c-0.4,0-0.7,0-1,0v3.1v14.3h1.9c0.2-1.8,0.9-3.2,2.2-3.2c0.9,0,1.7,1,2,2.3h1.4V19z M105.3,5.1c0,0,0.1-0.1,0.1-0.1l4,0.5
		c0.4,0,0.8,0.1,1,0.4l0.2,0.3c0,0,0.1,0.1,0,0.1c0,0-0.1,0.1-0.1,0.1L106.5,6c-0.4,0-0.8-0.3-1.1-0.6l-0.1-0.2
		C105.3,5.2,105.2,5.1,105.3,5.1 M101.2,13.9v-3.2l1.4-0.6c0.3-0.1,0.5,0,0.5,0.3l0,2.6C103.1,13.1,101.2,13.9,101.2,13.9"></path>
    <polygon fill="rgb(232, 230, 227)" points="112,17.7 112,18 119.4,18.2 119.4,18 119.4,17.8 	"></polygon>
    <polygon fill="rgb(232, 230, 227)" points="112,18.4 112,18.5 112,18.6 112,18.7 119.5,18.8 119.5,18.7 119.5,18.5 119.5,18.5 	"></polygon>
    <polygon fill="rgb(232, 230, 227)" points="112,20.1 119.5,20.2 119.5,20 119.5,19.8 112,19.7 	"></polygon>
    <polygon fill="rgb(232, 230, 227)" points="119.4,17.1 112,17 112,17.4 119.4,17.5 119.4,17.3 	"></polygon>
    <polygon fill="rgb(232, 230, 227)" points="112,19 112,19.2 112,19.4 119.5,19.5 119.5,19.3 119.5,19.1 	"></polygon>
    <polygon fill="rgb(232, 230, 227)" points="111.9,14.9 111.9,20.9 119.6,21 119.5,15 	"></polygon>
    <path fill="rgb(232, 230, 227)" d="M102.7,23.3c0,1.7,0.6,3.1,1.4,3.1c0.8,0,1.4-1.4,1.4-3.1c0-1.7-0.6-3.1-1.4-3.1
		C103.3,20.2,102.7,21.6,102.7,23.3"></path>
    <path fill="rgb(232, 230, 227)" d="M96.1,23.3c0,1.7,0.6,3.1,1.4,3.1c0.8,0,1.4-1.4,1.4-3.1c0-1.7-0.6-3.1-1.4-3.1C96.7,20.2,96.1,21.6,96.1,23.3
		"></path>
    <path fill="rgb(132, 183, 236)" d="M87.2,18.5c0,0-2-1.9-7.5-2.5c-5.5-0.6-9.7,0-9.7,0s1.7,0.3,2.8,1c1,0.7,1.6,1.6,1.6,1.6s8.2,0.1,14,1.1
		c5.8,0.9,5.8,2.6,5.8,2.6L91,22c0,0-0.5,0.4-0.8,0.8c-0.3,0.4-0.4,0.6-0.4,0.6s-4.8-0.2-4.8-0.2s-0.3-0.6-0.7-1
		c-0.4-0.4-1.2-0.8-1.2-0.8L77.3,21c0,0,0.3,0.7,0.5,1.2c0.1,0.6,0.1,1.1,0.1,1.1l6.3,0.3L78.4,23c0,0,0-0.4-0.1-0.7
		c-0.1-0.3-0.3-0.9-0.3-0.9s4.8,0.2,5.1,0.3c0.3,0.1,0.8,0.5,1.1,1c0.2,0.5,0.4,0.9,0.4,0.9l5.8,0.2c0,0,0.1-0.6,0.3-0.9
		c0.3-0.5,0.7-0.7,0.7-0.7l3.6,0.4c0,0,0-2.6-7.9-3.6c-7.9-1-12-0.9-12-0.9s-0.6-0.6-1.2-1c-0.6-0.4-1.6-0.8-1.6-0.8
		s5.7-0.1,9.4,0.4C85.3,17.2,87.2,18.5,87.2,18.5"></path>
    <path fill="rgb(132, 183, 236)" d="M91.1,23.9l3.7,0c0,0,0,1.7-0.1,2.5c-0.1,0.8-0.3,1.2-0.3,1.2H62.4c0,0-1.2-2.4-1-4.3c0.2-1.9,1.3-3.9,1.3-3.9
		l1.5-0.2c0,0,1.2-1.9,3.9-2.4c2.7-0.6,4.6,2.3,4.6,2.3l-5.4,0.6c0,0,0.6,0.9,0.8,3c0.2,2-0.1,3-0.1,3s-0.1-2-0.4-3.6
		c-0.3-1.6-1.3-2.9-1.3-2.9l4.9-0.5c0,0-1.1-1.8-3.5-1.4c-2.4,0.4-3.3,2.3-3.3,2.3l-1.1,0.3c0,0-1.4,2.1-1.3,3.9
		c0.1,1.8,0.7,3.3,0.7,3.3l0.5-0.1c0,0-0.4-3.9,0.6-5.9c1.1-2.1,2.3-0.7,2.9,1.7c0.5,2.3,0.1,4.2,0.1,4.2l5.1,0.2c0,0-0.9-3.2,0-5.8
		c1-2.7,3-2.6,3.9,0.1c0.9,2.7,0.7,5.7,0.7,5.7l17.5,0c0,0,0.2-0.6,0.3-1.3c0.1-0.7,0-1.3,0-1.3L91.1,23.9z"></path>
    <path fill="rgb(232, 230, 227)" d="M72,23.5c0.1,2,0.9,3.6,1.7,3.6c0.9,0,1.5-1.7,1.5-3.7c-0.1-2-0.9-3.6-1.7-3.6C72.6,19.9,71.9,21.5,72,23.5"></path>
    <path fill="rgb(232, 230, 227)" d="M63.4,24c0.1,1.7,0.7,3.1,1.5,3.1c0.8,0,1.3-1.5,1.3-3.2c-0.1-1.7-0.7-3.1-1.5-3.1
		C63.9,20.8,63.3,22.3,63.4,24"></path>
    <path fill="rgb(132, 183, 236)" d="M122.8,11.7c0.1-0.1,3.7-1.4,4.4-1.5c0.7-0.1,3.9,0.4,4.3,0.4c0.4,0.1,0.4,0.6,0.3,0.7c-0.2,0.1-3.2-0.1-4-0.1
		c-0.1,0-0.3,0-0.4,0l-5.1,1.5c0,0,5.1-1.7,5.1-1.8c0-0.1,0-0.5-0.1-0.5C127.1,10.5,122.8,11.7,122.8,11.7"></path>
    <path fill="rgb(132, 183, 236)" d="M127.8,16c0.1-0.1,3.6-1.4,8.3-1.7c4.7-0.2,6.2,0.1,6.2,0.1l0,5.1l-2.6,0.1l-0.3-4.3c0,0-3.4,0-7.4,0.6
		c-3.9,0.6-5.4,1.1-5.4,1.1s2.7-0.9,6.2-1.6c3.5-0.6,6.7-0.7,6.7-0.7s-3.5-0.2-7.3,0.4C128.4,15.7,127.8,16,127.8,16"></path>
    <path fill="rgb(132, 183, 236)" d="M126.3,15.5l-0.1-3.3c0,0-3.3,1-3.3,1.1c0,0.1,0.1,3.2,0.1,3.2s1.5-0.4,2.6-0.3c1.1,0.1,1.7,0.1,1.7,0.1
		s-0.8-0.3-2.1-0.4c-1.3,0-1.9,0.1-1.9,0.1l-0.1-2.5l2.7-0.7L126.3,15.5z"></path>
    <path fill="rgb(132, 183, 236)" d="M126.9,12c0.1,0,0.4-0.3,1.8-0.4c1.4-0.1,2.9,0.1,2.9,0.1l0.8,3.3l-0.5,0.1l-0.6-3c0,0-1.8-0.2-2.7-0.1
		C127.6,12,126.9,12,126.9,12"></path>
    <path fill="rgb(132, 183, 236)" d="M139.7,23.2c0,2.6-1.8,4.8-4.1,4.8c-2.3,0-4.2-2.1-4.3-4.7c0-2.6,1.8-4.8,4.1-4.8
		C137.8,18.4,139.7,20.5,139.7,23.2"></path>
    <path fill="rgb(232, 230, 227)" d="M137.3,23.2c0,1.7-1,3.1-2.3,3.2c-1.3,0-2.4-1.4-2.4-3.1c0-1.7,1-3.1,2.3-3.2
		C136.2,20.1,137.3,21.4,137.3,23.2"></path>
    <path fill="rgb(132, 183, 236)" d="M129.7,20c0-0.1-0.2-2.6-0.2-2.6s9.3-1.2,9.2-1.2c-0.1,0-8.5,1.8-8.5,1.8L129.7,20z"></path>
    <path fill="rgb(132, 183, 236)" d="M128.1,21.6c0.2-0.1,3.6-0.3,3.5-0.3c-0.1,0-3.6,1.1-3.6,1.1L128.1,21.6z"></path>
    <polygon fill="rgb(232, 230, 227)" points="140.1,15.2 140.4,18.9 140.7,15.2 	"></polygon>
    <polygon fill="rgb(232, 230, 227)" points="140.9,15.1 141.1,18.8 141.4,15.1 	"></polygon>
    <path fill="rgb(232, 230, 227)" d="M141.6,15.1c0,0,0.1,3.7,0.1,3.7l0.3-3.7L141.6,15.1z"></path>
    <path fill="rgb(132, 183, 236)" d="M123.1,17.9c0,0,2.5,0,2.9,3.1c0.3,2.7-0.6,5.3-2,5.6c-1.4,0.3-2.4-0.4-2.4-0.4s0.4,1,2,1.3
		c1.6,0.3,3.5-0.7,4.4-3.4c0.9-2.6,0.4-4.5-0.6-5.6C125.7,16.7,123.1,17.9,123.1,17.9"></path>
    <path fill="rgb(132, 183, 236)" d="M142.8,19.7c0,0,0.3,0.4-0.6,0.5c-0.9,0.1-2.6,0.2-2.6,0.2s2.7-0.1,2.7,0.3c0,0.4-2.9,0.4-2.9,0.4
		c0.1,0,4.3,0.4,4.3,0.4l-0.6-1.4L142.8,19.7z"></path>
    <path fill="rgb(132, 183, 236)" d="M141.8,19.4c0,0,0.7,0.1,1.2,1.2c0.5,1.1,0.8,2.7,0,4.4c-0.8,1.7-2.1,1.9-2.8,1.9c-0.7,0.1-1.4-0.7-1.4-0.7
		s0.2,1.2,1.8,1.4c1.6,0.3,3.6-0.8,4-4c0.4-3.1-2-4.3-2.3-4.4C141.9,19.1,141.8,19.3,141.8,19.4"></path>
    <path fill="rgb(232, 230, 227)" d="M10.3,58.6H8.4c-0.2,0-0.3,0.1-0.5,0.3L1.2,67c-0.2,0.2-0.2,0.3,0.1,0.3h2.3c0.1,0,0.2,0,0.3,0
		c0.1,0,0.1-0.1,0.2-0.2l1-1.2h3c0.1,0,0.1,0,0.1,0.1V67c0,0.2,0.1,0.3,0.3,0.3h1.9c0.2,0,0.4-0.1,0.4-0.3l-0.1-8.1
		C10.6,58.7,10.5,58.6,10.3,58.6 M8.1,63.9H6.6l1.6-2l0,1.8C8.2,63.9,8.1,63.9,8.1,63.9"></path>
    <path fill="rgb(232, 230, 227)" d="M34.4,58.6h-1.9c-0.2,0-0.3,0.1-0.4,0.3l-2.4,6c0,0.1-0.1,0.1-0.2,0.1h-2.9c-0.1,0-0.1,0-0.1-0.1l2.4-6
		c0.1-0.2,0-0.3-0.2-0.3h-1.9c-0.2,0-0.4,0.1-0.4,0.3l-2.6,6.3c-0.2,0.6-0.2,1.1,0,1.4c0.2,0.4,0.6,0.6,1.2,0.6h4.1
		c0.8,0,1.4-0.2,1.8-0.5c0.4-0.3,0.8-0.8,1.1-1.6l2.6-6.3C34.7,58.7,34.7,58.6,34.4,58.6"></path>
    <path fill="rgb(232, 230, 227)" d="M55.1,58.6h-7.6c-0.2,0-0.3,0.1-0.4,0.3l-0.7,1.6c-0.1,0.2,0,0.3,0.2,0.3h2.5L46.7,67c-0.1,0.2,0,0.3,0.2,0.3
		h1.9c0.2,0,0.3-0.1,0.4-0.3l2.4-6.1h2.5c0.2,0,0.4-0.1,0.4-0.3l0.7-1.6C55.4,58.7,55.3,58.6,55.1,58.6"></path>
    <path fill="rgb(232, 230, 227)" d="M73.9,58.6h-4.1c-0.8,0-1.3,0.2-1.8,0.5c-0.4,0.3-0.8,0.8-1.1,1.6l-1.9,4.6c-0.2,0.6-0.2,1.1,0,1.4
		c0.2,0.4,0.6,0.6,1.2,0.6h1.2h0.3h2.6c0.8,0,1.3-0.2,1.8-0.5c0.4-0.3,0.8-0.8,1.1-1.6l1.9-4.6c0.2-0.6,0.2-1.1,0-1.4
		C74.9,58.8,74.5,58.6,73.9,58.6 M72.5,61l-1.6,3.9c0,0.1-0.1,0.1-0.2,0.1h-2h-0.3h-0.6c-0.1,0-0.1,0-0.1-0.1l1.6-3.9
		c0-0.1,0.1-0.1,0.2-0.1h2.9C72.5,60.9,72.5,60.9,72.5,61"></path>
    <path fill="rgb(232, 230, 227)" d="M95.3,58.6h-5.6c-0.2,0-0.4,0.1-0.4,0.3L86,67c-0.1,0.2,0,0.3,0.2,0.3h1.9c0.2,0,0.4-0.1,0.5-0.3l0.8-2.1h3.4
		c0.8,0,1.3-0.2,1.8-0.5c0.4-0.3,0.8-0.8,1.1-1.6l0.9-2.2c0.2-0.6,0.2-1.1,0-1.4C96.3,58.8,95.9,58.6,95.3,58.6 M93.8,61l-0.6,1.6
		c0,0.1-0.1,0.1-0.2,0.1h-2.7L91,61c0-0.1,0.1-0.1,0.2-0.1h2.6C93.8,60.9,93.9,60.9,93.8,61"></path>
    <path fill="rgb(232, 230, 227)" d="M117.2,58.6h-6.6c-0.2,0-0.3,0.1-0.4,0.3l-3.2,8c-0.1,0.2,0,0.3,0.2,0.3h6.7c0.2,0,0.3-0.1,0.4-0.3l0.7-1.6
		c0.1-0.2,0-0.3-0.2-0.3h-4.3c-0.1,0-0.1,0-0.1-0.1l0.4-1h3.9c0.2,0,0.4-0.1,0.4-0.3l0.5-1.3c0.1-0.2,0-0.3-0.2-0.3h-3.9l0.4-1
		c0-0.1,0.1-0.1,0.2-0.1h4.3c0.2,0,0.4-0.1,0.4-0.3l0.7-1.6C117.5,58.7,117.4,58.6,117.2,58.6"></path>
    <path fill="rgb(232, 230, 227)" d="M137.6,58.6h-4.8c-0.8,0-1.3,0.2-1.8,0.5s-0.8,0.8-1.1,1.6l-1.9,4.6c-0.2,0.6-0.2,1.1,0,1.4
		c0.2,0.4,0.6,0.6,1.2,0.6h2.3c0,0.4-0.2,0.8-0.4,1s-0.5,0.4-0.8,0.4c-0.1,0-0.1,0-0.2,0c0,0,0,0,0,0c0,0,0,0,0,0
		c-0.1,0-0.2,0.1-0.2,0.2l-0.3,0.5c-0.1,0.1-0.1,0.2,0.1,0.2c0.2,0,0.3,0,0.5,0c0.1,0,0.3,0,0.4,0c0.9,0,1.4-0.2,1.7-0.6
		c0.3-0.4,0.4-1,0.5-1.7h1.4c0.2,0,0.3-0.1,0.4-0.3l0.7-1.6c0.1-0.2,0-0.3-0.2-0.3h-4.1c-0.1,0-0.1,0-0.1-0.1l1.6-3.9
		c0-0.1,0.1-0.1,0.2-0.1h4.1c0.2,0,0.4-0.1,0.4-0.3l0.7-1.6C137.9,58.7,137.8,58.6,137.6,58.6"></path>
    <path fill="rgb(232, 230, 227)" d="M155.6,58.6h-1.9c-0.2,0-0.3,0.1-0.5,0.3l-6.7,8.1c-0.2,0.2-0.2,0.3,0.1,0.3h2.3c0.1,0,0.2,0,0.3,0
		c0.1,0,0.1-0.1,0.2-0.2l1-1.2h3c0.1,0,0.1,0,0.1,0.1V67c0,0.2,0.1,0.3,0.3,0.3h1.9c0.2,0,0.4-0.1,0.4-0.3l-0.1-8.1
		C155.8,58.7,155.7,58.6,155.6,58.6 M153.3,63.9h-1.4l1.6-2l0,1.8C153.4,63.9,153.4,63.9,153.3,63.9"></path>
    <path fill="rgb(232, 230, 227)" d="M178.6,59.2c-0.2-0.4-0.6-0.6-1.2-0.6h-3.8c-0.7,0-1.3,0.2-1.7,0.5c-0.4,0.3-0.8,0.8-1.1,1.5l-0.6,1.4
		c-0.2,0.6-0.2,1,0,1.4c0.2,0.4,0.6,0.6,1.2,0.6h3.4c0.1,0,0.1,0.1,0.1,0.2l-0.4,1c0,0.1-0.1,0.2-0.2,0.2h-2.9
		c-0.1,0-0.1-0.1-0.1-0.2l0.1-0.3c0.1-0.1,0-0.2-0.1-0.2h-2c-0.1,0-0.2,0.1-0.3,0.2l-0.2,0.6c-0.2,0.6-0.2,1,0,1.4
		c0.2,0.4,0.6,0.6,1.2,0.6h4c0.7,0,1.3-0.2,1.7-0.5c0.4-0.3,0.8-0.8,1.1-1.5l0.6-1.4c0.2-0.6,0.2-1,0-1.4s-0.6-0.6-1.2-0.6h-3.4
		c-0.1,0-0.1-0.1-0.1-0.2l0.4-1c0-0.1,0.1-0.2,0.2-0.2h2.8c0.1,0,0.1,0.1,0.1,0.2l-0.1,0.3c-0.1,0.1,0,0.2,0.1,0.2h2
		c0.1,0,0.2-0.1,0.3-0.2l0.2-0.6C178.9,60,178.9,59.6,178.6,59.2"></path>
    <path fill="rgb(132, 183, 236)" d="M1.2,52.6l18-23.9c0.7-0.9,1.8-1.5,2.9-1.5h170.1c1.4,0,2.3,1.5,1.8,2.8l-9.5,23.1c-0.4,1.2-1.5,2-2.7,2H2.4
		C1.1,55.2,0.4,53.7,1.2,52.6"></path>
    <path fill="rgb(255, 209, 26)" d="M111.8,42.4l1.1-2.8c0.2-0.4,0.1-0.7-0.4-0.7h-7.3c-0.4,0-0.8,0.2-1,0.7l-1.1,2.8c-0.2,0.4-0.1,0.7,0.4,0.7
		h2.6l-1,2.4c-0.1,0.2-0.2,0.3-0.4,0.3h-5.8c-0.2,0-0.2-0.1-0.2-0.3l3.4-8.3c0.1-0.2,0.2-0.3,0.4-0.3h7.7c0.4,0,0.8-0.2,0.9-0.7
		l1.4-3.5c0.2-0.5,0-0.7-0.4-0.7h-9c-1.6,0-2.9,0.3-3.8,1c-0.9,0.6-1.7,1.8-2.3,3.4l-4,9.8c-0.5,1.2-0.5,2.2,0,3.1
		c0.5,0.8,1.4,1.3,2.6,1.3h8.4c1.6,0,2.9-0.3,3.8-1c0.9-0.6,1.7-1.8,2.3-3.4l1.5-3.6C111.8,42.5,111.8,42.5,111.8,42.4"></path>
    <path fill="rgb(255, 209, 26)" d="M129.5,39.2l-8.3,0l0.8-2c0.1-0.2,0.2-0.3,0.4-0.3h9.2c0.4,0,0.8-0.2,0.9-0.7l1.4-3.5c0.2-0.5,0.1-0.7-0.4-0.7
		h-14.2c-0.4,0-0.7,0.2-1,0.7l-6.9,17.1c-0.2,0.5-0.1,0.7,0.4,0.7H126c0.4,0,0.7-0.2,1-0.7l1.4-3.5c0.2-0.4,0-0.7-0.4-0.7h-9.2
		c-0.2,0-0.2-0.1-0.2-0.3l0.8-2.1l8.4,0c0.4,0,0.7-0.2,1-0.7l1.1-2.8C130.1,39.4,129.9,39.2,129.5,39.2"></path>
    <path fill="rgb(255, 209, 26)" d="M165.8,32h-4.1c-0.4,0-0.7,0.2-1.1,0.6l-14.2,17.2c-0.1,0.1-0.1,0.2-0.2,0.2c0-0.1,0-0.1-0.1-0.2l-2-5.2
		c1.4,0,2.4-0.2,3.2-0.6c0.7-0.4,1.3-1.1,1.7-2.2l2.3-5.5c0.5-1.2,0.5-2.2,0-3.1c-0.5-0.8-1.4-1.3-2.6-1.3h-12.1
		c-0.4,0-0.7,0.2-1,0.7l-6.9,17.1c-0.2,0.5-0.1,0.7,0.4,0.7h4.1c0.4,0,0.7-0.2,1-0.7l2.1-5.3l2.1,0.1l2,5.5c0.1,0.3,0.4,0.4,0.8,0.4
		h4.3c0.3,0,0.5-0.1,0.6-0.2c0,0.1,0.2,0.2,0.4,0.2h4.9c0.3,0,0.4,0,0.6-0.1c0.1-0.1,0.3-0.2,0.5-0.5l2-2.5h6.4
		c0.2,0,0.3,0.1,0.3,0.2V50c0,0.4,0.2,0.6,0.6,0.6h4.1c0.5,0,0.8-0.2,0.8-0.7l-0.3-17.2C166.4,32.2,166.2,32,165.8,32 M138.3,39.9
		l1.1-2.8c0.1-0.2,0.2-0.3,0.4-0.3h5.8c0.2,0,0.2,0.1,0.2,0.3l-1,2.6c-0.1,0.2-0.2,0.3-0.4,0.3L138.3,39.9z M161,43.3h-3.1l3.3-4.2
		l0,3.9C161.3,43.2,161.2,43.3,161,43.3"></path>
    <path fill="rgb(255, 209, 26)" d="M182.4,45.7h-7.5c-0.2,0-0.2-0.1-0.2-0.3l5.1-12.7c0.2-0.5,0.1-0.7-0.4-0.7h-4.1c-0.4,0-0.7,0.2-1,0.7
		l-6.9,17.1c-0.2,0.5-0.1,0.7,0.4,0.7h12.5c0.4,0,0.8-0.2,1-0.7l1.4-3.5C183,45.9,182.9,45.7,182.4,45.7"></path>
    <path fill="rgb(232, 230, 227)" d="M29.9,32h-4.1c-0.4,0-0.7,0.2-1.1,0.6L10.5,49.8c-0.4,0.5-0.4,0.7,0.2,0.7h4.9c0.3,0,0.4,0,0.6-0.1
		c0.1-0.1,0.3-0.2,0.5-0.5l2-2.5h2h4.3c0.2,0,0.3,0.1,0.3,0.2V50c0,0.4,0.2,0.6,0.6,0.6H30c0.5,0,0.8-0.2,0.8-0.7l-0.3-17.2
		C30.5,32.2,30.3,32,29.9,32 M25.1,43.3h-1.2c0,0-1.1,0-1.9,0l3.3-4.2l0,3.9C25.3,43.2,25.3,43.3,25.1,43.3"></path>
    <path fill="rgb(232, 230, 227)" d="M55.6,32h-4c-0.4,0-0.7,0.2-1,0.7l-5.1,12.7c-0.1,0.2-0.2,0.3-0.4,0.3h-6.2c-0.2,0-0.2-0.1-0.2-0.3l5.1-12.7
		c0.2-0.5,0.1-0.7-0.4-0.7h-4.1c-0.4,0-0.7,0.2-1,0.7L33,46.2c-0.5,1.2-0.5,2.2,0,3.1c0.5,0.8,1.4,1.3,2.6,1.3h8.8
		c1.6,0,2.9-0.3,3.8-1c0.9-0.6,1.7-1.8,2.3-3.4L56,32.7C56.2,32.3,56.1,32,55.6,32"></path>
    <path fill="rgb(232, 230, 227)" d="M71.9,36.9c0.5,0,0.8-0.2,1-0.7l1.4-3.5c0.2-0.5,0.1-0.7-0.4-0.7H57.7c-0.4,0-0.7,0.2-1,0.7l-1.4,3.5
		c-0.2,0.4,0,0.7,0.4,0.7h5.4l-5.2,13c-0.2,0.5-0.1,0.7,0.4,0.7h4c0.4,0,0.7-0.2,1-0.7l5.2-13H71.9z"></path>
    <path fill="rgb(232, 230, 227)" d="M90.9,33.3c-0.5-0.8-1.4-1.3-2.6-1.3h-8.7c-1.6,0-2.9,0.3-3.8,1c-0.9,0.6-1.7,1.8-2.3,3.4l-4,9.8
		c-0.5,1.2-0.5,2.2,0,3.1c0.5,0.8,1.4,1.3,2.6,1.3h5.7h0.5h2.6c1.6,0,2.9-0.3,3.8-1c0.9-0.6,1.7-1.8,2.3-3.4l4-9.8
		C91.4,35.2,91.4,34.1,90.9,33.3 M85.2,37.2l-3.3,8.3c-0.1,0.2-0.2,0.3-0.4,0.3h-1.3h-0.5h-4.3c-0.2,0-0.2-0.1-0.2-0.3l3.3-8.3
		c0.1-0.2,0.2-0.3,0.4-0.3H85C85.2,36.9,85.2,37,85.2,37.2"></path>
	</g>
</svg>
