<svg version="1.1" id="Layer_1" xmlns="http://www.w3.org/2000/svg" xmlns:xlink="http://www.w3.org/1999/xlink" x="0px" y="0px" viewBox="0 0 100 100" style="enable-background: 0 0 100 100;" xml:space="preserve" width="100" height="100">
    <g>
        <rect shape-rendering="optimizeSpeed" fill="rgb(232, 230, 227);" width="100" height="100"></rect>
      <g>
            <rect x="43.5" y="8.5" width="2.5" height="2.5"></rect>
        <polygon points="56,11 58.5,11 58.5,8.5 56,8.5 53.5,8.5 51,8.5 51,11 53.5,11"></polygon>
        <path d="M88.5,8.5H86h-2.5H81h-2.5H76h-2.5V11v2.5V16v2.5V21v2.5V26H76h2.5H81h2.5H86h2.5H91v-2.5V21v-2.5V16v-2.5V11V8.5H88.5z
			 M88.5,13.5V16v2.5V21v2.5H86h-2.5H81h-2.5H76V21v-2.5V16v-2.5V11h2.5H81h2.5H86h2.5V13.5z"></path>
        <polygon points="48.5,13.5 48.5,16 46,16 46,18.5 48.5,18.5 51,18.5 53.5,18.5 53.5,16 51,16 51,13.5 51,11 48.5,11 46,11
			46,13.5"></polygon>
        <polygon points="38.5,13.5 41,13.5 43.5,13.5 43.5,11 41,11 38.5,11 36,11 36,13.5 33.5,13.5 33.5,11 33.5,8.5 31,8.5 31,11
			28.5,11 28.5,13.5 31,13.5 31,16 28.5,16 28.5,18.5 31,18.5 33.5,18.5 33.5,16 36,16 36,18.5 38.5,18.5 38.5,16"></polygon>
        <rect x="43.5" y="13.5" width="2.5" height="2.5"></rect>
        <polygon points="81,13.5 78.5,13.5 78.5,16 78.5,18.5 78.5,21 81,21 83.5,21 86,21 86,18.5 86,16 86,13.5 83.5,13.5"></polygon>
        <polygon points="71,16 71,13.5 68.5,13.5 68.5,16 68.5,18.5 71,18.5 		"></polygon>
        <polygon points="18.5,21 21,21 21,18.5 21,16 21,13.5 18.5,13.5 16,13.5 13.5,13.5 13.5,16 13.5,18.5 13.5,21 16,21 		"></polygon>
        <polygon points="33.5,21 33.5,23.5 33.5,26 36,26 36,23.5 36,21 36,18.5 33.5,18.5"></polygon>
        <polygon points="43.5,18.5 43.5,16 41,16 41,18.5 38.5,18.5 38.5,21 41,21 43.5,21 46,21 46,18.5"></polygon>
        <path d="M13.5,26H16h2.5H21h2.5H26v-2.5V21v-2.5V16v-2.5V11V8.5h-2.5H21h-2.5H16h-2.5H11H8.5V11v2.5V16v2.5V21v2.5V26H11H13.5z
			 M11,21v-2.5V16v-2.5V11h2.5H16h2.5H21h2.5v2.5V16v2.5V21v2.5H21h-2.5H16h-2.5H11V21z"></path>
        <polygon points="31,23.5 31,21 28.5,21 28.5,23.5 28.5,26 31,26 		"></polygon>
        <polygon points="48.5,26 48.5,28.5 46,28.5 46,31 48.5,31 51,31 53.5,31 56,31 56,28.5 53.5,28.5 51,28.5 51,26 51,23.5
			53.5,23.5 53.5,26 56,26 56,23.5 56,21 58.5,21 61,21 61,23.5 63.5,23.5 63.5,26 66,26 66,23.5 66,21 68.5,21 68.5,18.5 66,18.5
			66,16 66,13.5 66,11 68.5,11 68.5,8.5 66,8.5 63.5,8.5 61,8.5 61,11 58.5,11 58.5,13.5 58.5,16 61,16 63.5,16 63.5,18.5 61,18.5
			58.5,18.5 56,18.5 53.5,18.5 53.5,21 51,21 48.5,21 46,21 46,23.5 48.5,23.5 		"></polygon>
        <rect x="58.5" y="23.5" width="2.5" height="2.5"></rect>
        <rect x="68.5" y="23.5" width="2.5" height="2.5"></rect>
        <polygon points="46,26 46,23.5 43.5,23.5 43.5,26 43.5,28.5 46,28.5 		"></polygon>
        <rect x="61" y="26" width="2.5" height="2.5"></rect>
        <polygon points="41,28.5 41,26 41,23.5 38.5,23.5 38.5,26 38.5,28.5 38.5,31 41,31 43.5,31 43.5,28.5 		"></polygon>
        <rect x="76" y="28.5" width="2.5" height="2.5"></rect>
        <rect x="81" y="28.5" width="2.5" height="2.5"></rect>
        <polygon points="88.5,28.5 86,28.5 86,31 83.5,31 83.5,33.5 86,33.5 86,36 88.5,36 88.5,33.5 91,33.5 91,31 88.5,31 		"></polygon>
        <polygon points="11,31 13.5,31 16,31 16,33.5 18.5,33.5 18.5,36 16,36 16,38.5 18.5,38.5 21,38.5 23.5,38.5 23.5,36 26,36
			26,33.5 23.5,33.5 21,33.5 21,31 21,28.5 18.5,28.5 16,28.5 13.5,28.5 11,28.5 8.5,28.5 8.5,31 8.5,33.5 8.5,36 11,36 11,33.5
			"></polygon>
        <rect x="43.5" y="31" width="2.5" height="2.5"></rect>
        <rect x="73.5" y="31" width="2.5" height="2.5"></rect>
        <rect x="13.5" y="33.5" width="2.5" height="2.5"></rect>
        <polygon points="51,33.5 51,36 53.5,36 56,36 56,33.5 53.5,33.5 		"></polygon>
        <rect x="81" y="33.5" width="2.5" height="2.5"></rect>
        <polygon points="38.5,36 41,36 41,33.5 38.5,33.5 36,33.5 36,36 33.5,36 33.5,33.5 33.5,31 36,31 36,28.5 33.5,28.5 31,28.5
			28.5,28.5 26,28.5 23.5,28.5 23.5,31 26,31 28.5,31 31,31 31,33.5 28.5,33.5 28.5,36 31,36 31,38.5 28.5,38.5 28.5,36 26,36
			26,38.5 23.5,38.5 23.5,41 26,41 28.5,41 31,41 33.5,41 33.5,38.5 36,38.5 36,41 38.5,41 38.5,38.5 		"></polygon>
        <polygon points="81,36 78.5,36 76,36 73.5,36 71,36 71,33.5 71,31 73.5,31 73.5,28.5 71,28.5 68.5,28.5 68.5,26 66,26 66,28.5
			63.5,28.5 63.5,31 66,31 66,33.5 68.5,33.5 68.5,36 68.5,38.5 71,38.5 71,41 73.5,41 73.5,38.5 76,38.5 76,41 78.5,41 81,41
			83.5,41 83.5,38.5 81,38.5 		"></polygon>
        <rect x="83.5" y="36" width="2.5" height="2.5"></rect>
        <rect x="21" y="41" width="2.5" height="2.5"></rect>
        <polygon points="33.5,43.5 33.5,46 36,46 36,43.5 36,41 33.5,41 		"></polygon>
        <polygon points="56,43.5 58.5,43.5 61,43.5 61,41 58.5,41 58.5,38.5 61,38.5 63.5,38.5 66,38.5 66,36 66,33.5 63.5,33.5 63.5,36
			61,36 61,33.5 61,31 61,28.5 58.5,28.5 58.5,31 56,31 56,33.5 58.5,33.5 58.5,36 56,36 56,38.5 53.5,38.5 51,38.5 48.5,38.5
			48.5,36 48.5,33.5 46,33.5 46,36 43.5,36 43.5,38.5 46,38.5 46,41 48.5,41 51,41 51,43.5 53.5,43.5 		"></polygon>
        <rect x="66" y="41" width="2.5" height="2.5"></rect>
        <rect x="73.5" y="41" width="2.5" height="2.5"></rect>
        <rect x="18.5" y="43.5" width="2.5" height="2.5"></rect>
        <rect x="23.5" y="43.5" width="2.5" height="2.5"></rect>
        <polygon points="46,46 48.5,46 51,46 51,43.5 48.5,43.5 46,43.5 43.5,43.5 43.5,41 41,41 38.5,41 38.5,43.5 41,43.5 41,46
			38.5,46 38.5,48.5 38.5,51 41,51 41,48.5 43.5,48.5 43.5,46 		"></polygon>
        <path d="M61,43.5V46h-2.5v2.5V51H56h-2.5v2.5V56H56v-2.5h2.5V56v2.5V61H56v2.5h2.5V66H61v2.5h2.5V71H61h-2.5H56h-2.5v2.5V76H56
			v-2.5h2.5V76v2.5H61h2.5V76H61v-2.5h2.5H66V71h2.5v2.5H66V76h2.5v2.5V81H66v2.5V86h2.5v-2.5H71h2.5V81H76v2.5h2.5H81V81h2.5v-2.5
			H86V76h2.5v-2.5H86V71h-2.5v2.5H81V71v-2.5h-2.5V66H76h-2.5H71v2.5h-2.5V66H66v-2.5h-2.5V61H61v-2.5h2.5V61H66v-2.5V56v-2.5h-2.5
			V56H61v-2.5h2.5V51H61v-2.5h2.5V51H66v-2.5V46v-2.5h-2.5H61z M73.5,71H76h2.5v2.5V76v2.5H76h-2.5H71V76v-2.5V71H73.5z"></path>
        <polygon points="68.5,43.5 68.5,46 68.5,48.5 71,48.5 73.5,48.5 73.5,46 73.5,43.5 71,43.5 		"></polygon>
        <polygon points="78.5,46 81,46 81,43.5 78.5,43.5 76,43.5 76,46 		"></polygon>
        <polygon points="88.5,43.5 91,43.5 91,41 88.5,41 86,41 86,43.5 86,46 88.5,46 		"></polygon>
        <polygon points="16,46 16,43.5 18.5,43.5 18.5,41 16,41 16,38.5 13.5,38.5 13.5,36 11,36 11,38.5 8.5,38.5 8.5,41 11,41 13.5,41
			13.5,43.5 13.5,46 13.5,48.5 11,48.5 11,46 11,43.5 8.5,43.5 8.5,46 8.5,48.5 8.5,51 11,51 11,53.5 13.5,53.5 13.5,51 16,51
			16,48.5 18.5,48.5 18.5,46 		"></polygon>
        <rect x="21" y="46" width="2.5" height="2.5"></rect>
        <rect x="26" y="46" width="2.5" height="2.5"></rect>
        <rect x="83.5" y="46" width="2.5" height="2.5"></rect>
        <path d="M21,48.5h-2.5V51v2.5H16V56h-2.5v2.5V61v2.5V66H16h2.5H21v2.5V71h2.5H26h2.5v2.5V76H31h2.5v-2.5V71v-2.5H36V66h-2.5v-2.5
			H31V66v2.5h-2.5V66v-2.5V61H26v2.5h-2.5H21h-2.5H16V61h2.5v-2.5V56H21v2.5h2.5V56H26h2.5H31v-2.5h-2.5H26h-2.5V51H21V48.5z M26,66
			v2.5h-2.5V66H26z"></path>
        <rect x="23.5" y="48.5" width="2.5" height="2.5"></rect>
        <polygon points="51,48.5 48.5,48.5 46,48.5 43.5,48.5 43.5,51 46,51 48.5,51 51,51 53.5,51 53.5,48.5 		"></polygon>
        <rect x="78.5" y="48.5" width="2.5" height="2.5"></rect>
        <polygon points="33.5,51 33.5,48.5 31,48.5 31,51 31,53.5 33.5,53.5 		"></polygon>
        <rect x="66" y="51" width="2.5" height="2.5"></rect>
        <polygon points="83.5,51 81,51 81,53.5 81,56 83.5,56 83.5,53.5 		"></polygon>
        <polygon points="8.5,56 8.5,58.5 11,58.5 11,56 11,53.5 8.5,53.5 		"></polygon>
        <polygon points="48.5,53.5 46,53.5 46,56 43.5,56 43.5,58.5 46,58.5 48.5,58.5 48.5,56 		"></polygon>
        <polygon points="88.5,53.5 91,53.5 91,51 88.5,51 88.5,48.5 86,48.5 86,51 86,53.5 86,56 88.5,56 		"></polygon>
        <polygon points="38.5,56 41,56 41,53.5 38.5,53.5 36,53.5 36,56 36,58.5 36,61 38.5,61 38.5,58.5 		"></polygon>
        <polygon points="73.5,58.5 76,58.5 76,56 78.5,56 78.5,53.5 76,53.5 76,51 73.5,51 73.5,53.5 71,53.5 71,56 73.5,56 		"></polygon>
        <rect x="83.5" y="56" width="2.5" height="2.5"></rect>
        <rect x="23.5" y="58.5" width="2.5" height="2.5"></rect>
        <polygon points="28.5,58.5 28.5,61 31,61 33.5,61 33.5,58.5 33.5,56 31,56 31,58.5 		"></polygon>
        <polygon points="53.5,58.5 51,58.5 48.5,58.5 48.5,61 51,61 53.5,61 56,61 56,58.5 		"></polygon>
        <polygon points="73.5,61 73.5,58.5 71,58.5 71,56 68.5,56 68.5,58.5 68.5,61 71,61 		"></polygon>
        <polygon points="78.5,61 81,61 81,58.5 78.5,58.5 76,58.5 76,61 		"></polygon>
        <rect x="66" y="61" width="2.5" height="2.5"></rect>
        <rect x="73.5" y="61" width="2.5" height="2.5"></rect>
        <polygon points="81,66 81,68.5 83.5,68.5 86,68.5 86,66 83.5,66 83.5,63.5 83.5,61 81,61 81,63.5 		"></polygon>
        <polygon points="88.5,63.5 91,63.5 91,61 88.5,61 88.5,58.5 86,58.5 86,61 86,63.5 86,66 88.5,66 		"></polygon>
        <polygon points="11,68.5 11,66 11,63.5 11,61 8.5,61 8.5,63.5 8.5,66 8.5,68.5 8.5,71 11,71 		"></polygon>
        <rect x="16" y="68.5" width="2.5" height="2.5"></rect>
        <polygon points="51,68.5 51,66 53.5,66 53.5,63.5 51,63.5 48.5,63.5 46,63.5 46,61 43.5,61 41,61 38.5,61 38.5,63.5 41,63.5
			41,66 38.5,66 38.5,68.5 38.5,71 41,71 41,68.5 43.5,68.5 43.5,66 46,66 46,68.5 43.5,68.5 43.5,71 46,71 48.5,71 51,71 53.5,71
			53.5,68.5 		"></polygon>
        <polygon points="91,71 91,68.5 88.5,68.5 88.5,71 88.5,73.5 91,73.5 		"></polygon>
        <path d="M21,73.5h-2.5H16h-2.5H11H8.5V76v2.5V81v2.5V86v2.5V91H11h2.5H16h2.5H21h2.5H26v-2.5V86v-2.5V81v-2.5V76v-2.5h-2.5H21z
			 M23.5,78.5V81v2.5V86v2.5H21h-2.5H16h-2.5H11V86v-2.5V81v-2.5V76h2.5H16h2.5H21h2.5V78.5z"></path>
        <rect x="73.5" y="73.5" width="2.5" height="2.5"></rect>
        <polygon points="38.5,76 41,76 41,73.5 38.5,73.5 36,73.5 36,76 36,78.5 36,81 38.5,81 38.5,78.5 		"></polygon>
        <polygon points="16,78.5 13.5,78.5 13.5,81 13.5,83.5 13.5,86 16,86 18.5,86 21,86 21,83.5 21,81 21,78.5 18.5,78.5 		"></polygon>
        <polygon points="51,81 53.5,81 53.5,78.5 51,78.5 48.5,78.5 48.5,76 51,76 51,73.5 48.5,73.5 46,73.5 46,76 43.5,76 43.5,78.5
			46,78.5 46,81 48.5,81 		"></polygon>
        <rect x="63.5" y="78.5" width="2.5" height="2.5"></rect>
        <polygon points="86,78.5 86,81 83.5,81 83.5,83.5 83.5,86 81,86 81,88.5 81,91 83.5,91 83.5,88.5 86,88.5 86,86 86,83.5
			88.5,83.5 91,83.5 91,81 91,78.5 91,76 88.5,76 88.5,78.5 		"></polygon>
        <polygon points="58.5,81 58.5,78.5 56,78.5 56,81 56,83.5 58.5,83.5 		"></polygon>
        <polygon points="53.5,86 56,86 56,83.5 53.5,83.5 51,83.5 48.5,83.5 46,83.5 46,81 43.5,81 41,81 38.5,81 38.5,83.5 41,83.5
			41,86 38.5,86 38.5,88.5 38.5,91 41,91 41,88.5 43.5,88.5 43.5,86 46,86 48.5,86 48.5,88.5 51,88.5 51,86 		"></polygon>
        <polygon points="73.5,86 71,86 71,88.5 68.5,88.5 66,88.5 66,86 63.5,86 63.5,83.5 63.5,81 61,81 61,83.5 61,86 58.5,86
			58.5,88.5 61,88.5 63.5,88.5 63.5,91 66,91 68.5,91 71,91 73.5,91 76,91 78.5,91 78.5,88.5 78.5,86 76,86 76,83.5 73.5,83.5 		"></polygon>
        <polygon points="31,86 33.5,86 33.5,83.5 33.5,81 33.5,78.5 31,78.5 28.5,78.5 28.5,81 28.5,83.5 28.5,86 28.5,88.5 28.5,91
			31,91 33.5,91 33.5,88.5 31,88.5 		"></polygon>
        <rect x="33.5" y="86" width="2.5" height="2.5"></rect>
        <rect x="43.5" y="88.5" width="2.5" height="2.5"></rect>
        <polygon points="53.5,88.5 51,88.5 51,91 53.5,91 56,91 58.5,91 58.5,88.5 56,88.5 		"></polygon>
        <rect x="86" y="88.5" width="2.5" height="2.5"></rect>
        </g>
    </g>
</svg>
